<svg width="225" height="67" viewBox="0 0 225 67" fill="none" xmlns="http://www.w3.org/2000/svg">
<path d="M3.52 47.5V15.82H8.822V42.528H22.814V47.5H3.52ZM33.1849 48.16C31.4689 48.16 30.0169 47.8373 28.8289 47.192C27.6409 46.532 26.7389 45.6593 26.1229 44.574C25.5216 43.4887 25.2209 42.2933 25.2209 40.988C25.2209 39.844 25.4116 38.8173 25.7929 37.908C26.1743 36.984 26.7609 36.192 27.5529 35.532C28.3449 34.8573 29.3716 34.3073 30.6329 33.882C31.5863 33.574 32.7009 33.2953 33.9769 33.046C35.2676 32.7967 36.6609 32.5693 38.1569 32.364C39.6676 32.144 41.2443 31.9093 42.8869 31.66L40.9949 32.738C41.0096 31.0953 40.6429 29.8853 39.8949 29.108C39.1469 28.3307 37.8856 27.942 36.1109 27.942C35.0403 27.942 34.0063 28.1913 33.0089 28.69C32.0116 29.1887 31.3149 30.0467 30.9189 31.264L26.0789 29.746C26.6656 27.7367 27.7803 26.1233 29.4229 24.906C31.0803 23.6887 33.3096 23.08 36.1109 23.08C38.2229 23.08 40.0783 23.4247 41.6769 24.114C43.2903 24.8033 44.4856 25.9327 45.2629 27.502C45.6883 28.338 45.9449 29.196 46.0329 30.076C46.1209 30.9413 46.1649 31.8873 46.1649 32.914V47.5H41.5229V42.352L42.2929 43.188C41.2223 44.904 39.9683 46.1653 38.5309 46.972C37.1083 47.764 35.3263 48.16 33.1849 48.16ZM34.2409 43.936C35.4436 43.936 36.4703 43.7233 37.3209 43.298C38.1716 42.8727 38.8463 42.352 39.3449 41.736C39.8583 41.12 40.2029 40.5407 40.3789 39.998C40.6576 39.3233 40.8116 38.5533 40.8409 37.688C40.8849 36.808 40.9069 36.0967 40.9069 35.554L42.5349 36.038C40.9363 36.2873 39.5649 36.5073 38.4209 36.698C37.2769 36.8887 36.2943 37.072 35.4729 37.248C34.6516 37.4093 33.9256 37.5927 33.2949 37.798C32.6789 38.018 32.1583 38.2747 31.7329 38.568C31.3076 38.8613 30.9776 39.1987 30.7429 39.58C30.5229 39.9613 30.4129 40.4087 30.4129 40.922C30.4129 41.5087 30.5596 42.0293 30.8529 42.484C31.1463 42.924 31.5716 43.276 32.1289 43.54C32.7009 43.804 33.4049 43.936 34.2409 43.936ZM56.0931 47.5L48.8331 23.696L54.0251 23.74L58.6671 38.986L63.3751 23.74H67.8411L72.5271 38.986L77.1911 23.74H82.3831L75.1231 47.5H70.9871L65.5971 31.154L60.2291 47.5H56.0931ZM95.4821 58.72C94.1621 58.72 92.8934 58.5147 91.6761 58.104C90.4734 57.6933 89.3881 57.0993 88.4201 56.322C87.4521 55.5593 86.6601 54.6353 86.0441 53.55L90.9281 51.13C91.3827 51.9953 92.0207 52.6333 92.8421 53.044C93.6781 53.4693 94.5654 53.682 95.5041 53.682C96.6041 53.682 97.5867 53.484 98.4521 53.088C99.3174 52.7067 99.9847 52.1347 100.454 51.372C100.938 50.624 101.165 49.6853 101.136 48.556V41.802H101.796V23.74H106.438V48.644C106.438 49.2453 106.409 49.8173 106.35 50.36C106.306 50.9173 106.225 51.46 106.108 51.988C105.756 53.528 105.081 54.7893 104.084 55.772C103.087 56.7693 101.847 57.51 100.366 57.994C98.8994 58.478 97.2714 58.72 95.4821 58.72ZM95.0201 48.16C92.8347 48.16 90.9281 47.61 89.3001 46.51C87.6721 45.41 86.4107 43.914 85.5161 42.022C84.6214 40.13 84.1741 37.996 84.1741 35.62C84.1741 33.2147 84.6214 31.0733 85.5161 29.196C86.4254 27.304 87.7087 25.8153 89.3661 24.73C91.0234 23.63 92.9741 23.08 95.2181 23.08C97.4767 23.08 99.3687 23.63 100.894 24.73C102.434 25.8153 103.6 27.304 104.392 29.196C105.184 31.088 105.58 33.2293 105.58 35.62C105.58 37.9813 105.184 40.1153 104.392 42.022C103.6 43.914 102.419 45.41 100.85 46.51C99.2807 47.61 97.3374 48.16 95.0201 48.16ZM95.8341 43.408C97.2567 43.408 98.4007 43.0853 99.2661 42.44C100.146 41.78 100.784 40.8633 101.18 39.69C101.591 38.5167 101.796 37.16 101.796 35.62C101.796 34.0653 101.591 32.7087 101.18 31.55C100.784 30.3767 100.161 29.4673 99.3101 28.822C98.4594 28.162 97.3594 27.832 96.0101 27.832C94.5874 27.832 93.4141 28.184 92.4901 28.888C91.5661 29.5773 90.8841 30.516 90.4441 31.704C90.0041 32.8773 89.7841 34.1827 89.7841 35.62C89.7841 37.072 89.9967 38.392 90.4221 39.58C90.8621 40.7533 91.5294 41.6847 92.4241 42.374C93.3187 43.0633 94.4554 43.408 95.8341 43.408ZM123.409 48.16C121.004 48.16 118.892 47.6393 117.073 46.598C115.255 45.5567 113.832 44.112 112.805 42.264C111.793 40.416 111.287 38.2893 111.287 35.884C111.287 33.288 111.786 31.0367 112.783 29.13C113.781 27.2087 115.167 25.72 116.941 24.664C118.716 23.608 120.769 23.08 123.101 23.08C125.565 23.08 127.655 23.6593 129.371 24.818C131.102 25.962 132.385 27.5827 133.221 29.68C134.057 31.7773 134.373 34.2487 134.167 37.094H128.909V35.158C128.895 32.5767 128.44 30.692 127.545 29.504C126.651 28.316 125.243 27.722 123.321 27.722C121.151 27.722 119.537 28.3967 118.481 29.746C117.425 31.0807 116.897 33.0387 116.897 35.62C116.897 38.0253 117.425 39.888 118.481 41.208C119.537 42.528 121.077 43.188 123.101 43.188C124.407 43.188 125.529 42.902 126.467 42.33C127.421 41.7433 128.154 40.9 128.667 39.8L133.903 41.384C132.994 43.5253 131.586 45.19 129.679 46.378C127.787 47.566 125.697 48.16 123.409 48.16ZM115.225 37.094V33.09H131.571V37.094H115.225ZM149.394 48.16C146.945 48.16 144.855 47.6173 143.124 46.532C141.393 45.432 140.066 43.936 139.142 42.044C138.233 40.152 137.771 38.0107 137.756 35.62C137.771 33.1853 138.247 31.0293 139.186 29.152C140.139 27.26 141.489 25.7787 143.234 24.708C144.979 23.6227 147.055 23.08 149.46 23.08C152.159 23.08 154.439 23.762 156.302 25.126C158.179 26.4753 159.404 28.3233 159.976 30.67L154.696 32.1C154.285 30.824 153.603 29.834 152.65 29.13C151.697 28.4113 150.611 28.052 149.394 28.052C148.015 28.052 146.879 28.382 145.984 29.042C145.089 29.6873 144.429 30.582 144.004 31.726C143.579 32.87 143.366 34.168 143.366 35.62C143.366 37.8787 143.872 39.7047 144.884 41.098C145.896 42.4913 147.399 43.188 149.394 43.188C150.802 43.188 151.909 42.8653 152.716 42.22C153.537 41.5747 154.153 40.6433 154.564 39.426L159.976 40.636C159.243 43.056 157.959 44.9187 156.126 46.224C154.293 47.5147 152.049 48.16 149.394 48.16ZM164.341 47.5L164.385 15.82H169.753V35.18L178.443 23.74H185.065L175.847 35.62L185.857 47.5H178.839L169.753 36.06V47.5H164.341Z" fill="#323145"/>
<ellipse cx="210" cy="36" rx="15" ry="16.5" fill="#FFA543"/>
<circle cx="210" cy="35.5" r="8" fill="#452872"/>
</svg>
